<?xml version="1.0" standalone="no"?>
<!DOCTYPE svg PUBLIC "-//W3C//DTD SVG 20010904//EN"
 "http://www.w3.org/TR/2001/REC-SVG-20010904/DTD/svg10.dtd">
<svg version="1.0" xmlns="http://www.w3.org/2000/svg"
 width="1405.000000pt" height="1405.000000pt" viewBox="0 0 1405.000000 1405.000000"
 preserveAspectRatio="xMidYMid meet">
<metadata>
Created by potrace 1.14, written by Peter Selinger 2001-2017
</metadata>
<g transform="translate(0.000000,1405.000000) scale(0.100000,-0.100000)"
fill="#000000" stroke="none">
<path d="M6749 14046 c-2 -2 -44 -7 -93 -10 -49 -4 -108 -9 -130 -12 -72 -9
-256 -35 -279 -40 -12 -3 -58 -12 -102 -20 -320 -62 -738 -204 -1060 -362
-603 -296 -1149 -747 -1564 -1292 -94 -123 -207 -288 -262 -383 -19 -33 -43
-73 -53 -90 -10 -18 -39 -70 -63 -117 -25 -47 -48 -89 -52 -95 -6 -8 -52 -107
-107 -230 -64 -145 -199 -540 -219 -645 -2 -8 -8 -35 -15 -60 -7 -25 -13 -52
-15 -60 -2 -8 -10 -50 -19 -92 -9 -42 -18 -94 -21 -115 -3 -21 -10 -60 -15
-88 -16 -85 -32 -237 -46 -425 -3 -47 -6 -1673 -6 -3615 l0 -3530 4396 -2
c4104 -1 4396 0 4397 15 4 110 0 7029 -5 7116 -6 112 -10 154 -21 254 -14 119
-16 139 -21 164 -3 15 -7 39 -9 55 -8 62 -48 254 -72 348 -13 55 -26 107 -28
115 -4 16 -43 141 -69 220 -117 358 -317 759 -542 1088 -81 119 -267 356 -349
447 -118 130 -294 300 -465 449 -49 43 -237 184 -330 248 -196 135 -485 297
-705 395 -73 32 -303 124 -320 127 -5 2 -68 21 -139 44 -71 23 -142 45 -157
47 -16 3 -40 10 -54 15 -14 5 -36 12 -48 14 -12 3 -67 14 -122 26 -55 12 -111
24 -125 26 -14 3 -51 9 -82 15 -99 17 -89 16 -253 34 -27 3 -68 8 -90 11 -44
6 -660 15 -666 10z"/>
<path d="M6017 2423 c-2 -5 -3 -206 -2 -448 1 -425 1 -442 21 -480 32 -61 73
-80 174 -80 47 0 96 3 110 7 24 7 25 11 25 75 l0 68 -53 0 c-57 0 -71 11 -73
55 0 14 -1 202 -1 418 l-1 392 -98 0 c-54 0 -100 -3 -102 -7z"/>
<path d="M7625 1920 l0 -500 102 0 103 0 -1 245 c-1 174 2 249 10 259 38 45
163 75 229 55 59 -19 64 -41 64 -315 l1 -244 103 0 103 0 -3 273 c-2 255 -3
275 -23 317 -30 61 -42 74 -93 102 -88 45 -274 32 -364 -27 l-26 -17 -1 48 c0
27 0 106 0 177 l0 127 -102 0 -102 0 0 -500z"/>
<path d="M11171 2293 c1 -205 1 -207 -13 -196 -25 20 -104 40 -166 42 -207 8
-350 -139 -356 -364 -5 -174 46 -280 162 -336 40 -20 63 -23 157 -23 93 -1
117 3 157 22 25 12 53 29 62 38 15 14 16 14 16 -4 0 -48 7 -52 99 -52 l86 0 0
500 0 500 -102 0 -102 0 0 -127z m-53 -328 l52 -24 1 -63 c1 -75 1 -214 0
-245 -2 -54 -168 -89 -246 -52 -64 30 -80 67 -80 179 0 86 3 99 28 143 50 84
143 108 245 62z"/>
<path d="M2675 1900 l0 -480 101 0 101 0 1 148 c0 81 1 153 1 160 1 9 27 12
94 12 112 0 129 -9 164 -89 14 -31 36 -80 49 -108 13 -29 26 -64 30 -77 10
-42 25 -47 132 -44 l100 3 -67 155 c-36 85 -76 169 -88 186 l-22 30 32 12 c45
17 101 73 128 128 30 64 32 185 4 263 -27 73 -86 133 -156 159 -52 19 -79 21
-330 22 l-274 1 0 -481z m512 287 c84 -44 84 -203 0 -252 -27 -16 -55 -20
-169 -21 -98 -1 -138 1 -139 10 -1 15 -1 247 0 267 1 15 17 17 139 15 107 -2
144 -6 169 -19z"/>
<path d="M6725 2308 l0 -73 148 -3 147 -3 0 -404 0 -405 100 0 c73 0 100 3
101 13 0 6 1 189 1 404 l1 392 146 3 145 3 1 73 1 72 -396 0 -396 0 1 -72z"/>
<path d="M8882 2129 c-40 -10 -96 -30 -124 -44 -28 -14 -52 -24 -54 -23 -1 2
-4 17 -7 33 l-4 30 -94 3 -94 3 0 -356 0 -355 102 0 102 0 0 218 c0 119 0 231
0 247 1 26 7 33 44 47 23 10 78 27 121 38 44 11 81 22 83 24 2 2 3 37 1 79
l-3 75 -73 -19z"/>
<path d="M3767 2120 c-142 -44 -216 -154 -221 -327 -6 -178 61 -301 193 -354
44 -18 80 -23 167 -25 94 -2 128 1 199 19 65 17 144 89 176 161 23 53 30 93
31 187 2 167 -77 292 -212 336 -87 28 -249 29 -333 3z m257 -170 c55 -21 77
-66 81 -167 2 -59 -1 -81 -19 -115 -34 -67 -63 -83 -154 -82 -142 1 -177 40
-176 198 0 69 3 101 12 104 7 2 12 10 12 18 0 17 41 44 83 54 41 10 123 5 161
-10z"/>
<path d="M5313 2118 l-73 -20 0 -73 0 -72 53 15 c30 8 100 15 167 15 155 2
180 -11 192 -98 3 -19 -4 -20 -152 -25 -176 -7 -225 -19 -275 -67 -47 -46 -65
-83 -69 -146 -6 -95 33 -164 119 -210 34 -19 56 -22 150 -22 104 0 115 2 173
31 34 17 64 28 67 26 3 -3 5 -16 5 -29 0 -22 2 -23 90 -23 l90 0 0 248 c0 275
-7 323 -58 379 -28 30 -93 69 -136 80 -11 4 -77 7 -146 8 -99 2 -140 -1 -197
-17z m342 -437 c0 -65 -9 -79 -71 -111 -54 -27 -147 -35 -196 -16 -72 27 -67
146 7 177 11 4 74 7 140 6 l120 -2 0 -54z"/>
<path d="M9255 2129 c-54 -12 -56 -13 -92 -32 -105 -56 -163 -185 -156 -349 9
-224 154 -342 418 -337 79 1 212 24 229 39 4 4 8 34 8 67 0 87 2 83 -34 72
-59 -18 -102 -23 -198 -23 -124 0 -183 25 -218 94 l-22 45 255 3 255 2 1 23
c1 12 1 56 0 98 -1 199 -124 311 -336 308 -38 -1 -88 -5 -110 -10z m210 -150
c35 -17 57 -57 59 -108 l1 -36 -167 -3 c-93 -1 -168 0 -168 2 0 3 5 27 11 54
17 81 68 112 174 108 33 -2 74 -9 90 -17z"/>
<path d="M10040 2134 c-14 -2 -53 -11 -87 -20 l-63 -16 0 -74 c0 -72 1 -74 20
-64 11 6 20 8 20 6 0 -3 12 -1 28 5 36 14 218 20 266 9 22 -5 45 -15 53 -23
17 -17 34 -85 24 -92 -4 -2 -73 -5 -153 -6 -127 -1 -152 -4 -202 -24 -88 -36
-135 -97 -140 -183 -6 -98 33 -170 119 -215 34 -18 57 -22 150 -22 104 0 115
2 173 31 l63 31 6 -28 6 -29 89 0 89 0 -3 268 c-3 229 -6 273 -21 306 -28 64
-84 106 -177 134 -21 6 -230 11 -260 6z m261 -401 c1 -4 2 -30 3 -58 2 -43 -2
-54 -26 -76 -64 -61 -216 -76 -266 -26 -37 37 -34 103 6 138 29 26 35 27 156
28 69 1 127 -2 127 -6z"/>
<path d="M4350 2120 c0 -6 4 -18 10 -28 5 -9 66 -143 136 -297 69 -154 135
-299 145 -323 l20 -42 -31 -45 c-18 -26 -46 -51 -64 -59 -38 -16 -99 -18 -133
-5 -23 8 -23 8 -23 -65 0 -74 0 -74 31 -85 47 -16 159 -13 218 5 90 30 162
117 240 294 46 105 45 104 92 215 22 55 47 114 54 130 8 17 41 94 73 173 l60
142 -106 0 -107 0 -99 -235 c-55 -130 -103 -232 -107 -228 -5 5 -36 73 -69
153 -33 80 -69 163 -79 185 -10 22 -26 59 -36 83 l-19 42 -103 0 c-63 0 -103
-4 -103 -10z"/>
<path d="M2968 1015 c-1 0 -2 -228 -3 -506 l-2 -506 4061 1 4061 1 0 505 0
505 -4057 0 c-2232 0 -4059 0 -4060 0z"/>
</g>
</svg>
